<?xml version="1.0" encoding="iso-8859-1"?>
<!-- Generator: Adobe Illustrator 25.2.0, SVG Export Plug-In . SVG Version: 6.00 Build 0)  -->
<svg version="1.1" id="Layer_1" xmlns="http://www.w3.org/2000/svg" xmlns:xlink="http://www.w3.org/1999/xlink" x="0px" y="0px"
	 viewBox="0 0 1000 1000" style="enable-background:new 0 0 1000 1000;" xml:space="preserve">
<g id="watermark_1_">
	<g>
		<g id="watermark" style="opacity:0.61;">
			<g>
				<g>
					<g>
						<g>
							<polygon style="fill:#606060;" points="421.112,924.528 409.007,952.493 402.615,952.493 390.55,924.528 397.541,924.528 
								406.051,944.503 414.68,924.528 							"/>
						</g>
						<g>
							<path style="fill:#606060;" d="M442.323,943.185h-16.26c0.599,2.677,2.876,4.315,6.153,4.315
								c2.277,0,3.915-0.679,5.393-2.077l3.316,3.595c-1.997,2.278-4.994,3.476-8.868,3.476c-7.431,0-12.265-4.674-12.265-11.067
								c0-6.432,4.914-11.066,11.466-11.066c6.312,0,11.186,4.235,11.186,11.146C442.443,941.987,442.363,942.666,442.323,943.185
								 M425.983,939.55h10.587c-0.44-2.717-2.478-4.475-5.274-4.475C428.46,935.075,426.422,936.793,425.983,939.55"/>
						</g>
						<g>
							<path style="fill:#606060;" d="M444.997,941.427c0-6.471,4.994-11.066,11.985-11.066c4.514,0,8.07,1.958,9.628,5.473
								l-4.834,2.597c-1.159-2.038-2.877-2.956-4.834-2.956c-3.156,0-5.633,2.198-5.633,5.952c0,3.756,2.477,5.953,5.633,5.953
								c1.958,0,3.675-0.879,4.834-2.956l4.834,2.637c-1.558,3.436-5.114,5.433-9.628,5.433
								C449.991,952.493,444.997,947.899,444.997,941.427"/>
						</g>
						<g>
							<path style="fill:#606060;" d="M484.386,951.135c-1.279,0.919-3.157,1.358-5.074,1.358c-5.073,0-8.03-2.597-8.03-7.711
								v-8.829h-3.316v-4.794h3.316v-5.233h6.232v5.233h5.353v4.794h-5.353v8.749c0,1.837,0.998,2.836,2.677,2.836
								c0.918,0,1.837-0.279,2.517-0.799L484.386,951.135z"/>
						</g>
					</g>
					<g>
						<path style="fill:#606060;" d="M527.157,930.68v5.753c-0.519-0.04-0.918-0.08-1.398-0.08c-3.435,0-5.713,1.877-5.713,5.993
							v10.147h-6.232V931h5.953v2.836C521.284,931.759,523.841,930.68,527.157,930.68"/>
					</g>
					<g>
						<path style="fill:#606060;" d="M528.954,949.257l2.197-4.874c2.357,1.718,5.873,2.916,9.229,2.916
							c3.836,0,5.393-1.278,5.393-2.996c0-5.233-16.26-1.638-16.26-12.025c0-4.754,3.835-8.709,11.785-8.709
							c3.516,0,7.112,0.839,9.708,2.477l-1.998,4.914c-2.597-1.478-5.273-2.197-7.75-2.197c-3.835,0-5.313,1.438-5.313,3.196
							c0,5.154,16.259,1.598,16.259,11.865c0,4.675-3.875,8.67-11.865,8.67C535.905,952.493,531.43,951.175,528.954,949.257"/>
					</g>
					<g>
						<path style="fill:#606060;" d="M577.131,943.185h-16.26c0.599,2.677,2.876,4.315,6.153,4.315c2.277,0,3.915-0.679,5.393-2.077
							l3.316,3.595c-1.998,2.278-4.994,3.476-8.869,3.476c-7.431,0-12.265-4.674-12.265-11.067c0-6.432,4.914-11.066,11.466-11.066
							c6.312,0,11.187,4.235,11.187,11.146C577.251,941.987,577.171,942.666,577.131,943.185 M560.791,939.55h10.587
							c-0.439-2.717-2.477-4.475-5.273-4.475C563.268,935.075,561.231,936.793,560.791,939.55"/>
					</g>
					<g>
						<path style="fill:#606060;" d="M602.337,943.185h-16.26c0.599,2.677,2.876,4.315,6.152,4.315c2.277,0,3.915-0.679,5.393-2.077
							l3.316,3.595c-1.998,2.278-4.994,3.476-8.869,3.476c-7.431,0-12.265-4.674-12.265-11.067c0-6.432,4.914-11.066,11.466-11.066
							c6.312,0,11.186,4.235,11.186,11.146C602.457,941.987,602.377,942.666,602.337,943.185 M585.997,939.55h10.587
							c-0.439-2.717-2.477-4.475-5.273-4.475C588.474,935.075,586.437,936.793,585.997,939.55"/>
					</g>
					<g>
						<polygon style="fill:#606060;" points="615.838,944.064 612.841,947.02 612.841,952.493 606.61,952.493 606.61,922.85 
							612.841,922.85 612.841,939.629 621.95,931 629.381,931 620.432,940.108 630.18,952.493 622.63,952.493 						"/>
					</g>
					<g>
						<path style="fill:#606060;" d="M514.371,955.416L514.371,955.416l-6.226-6.226c-0.947,1.107-2.075,2.054-3.339,2.796
							c-0.201,0.15-0.406,0.296-0.616,0.433l6.589,6.589c0.992,0.992,2.601,0.992,3.592,0
							C515.363,958.017,515.363,956.408,514.371,955.416"/>
					</g>
					<g>
						<path style="fill:#F84D10;" d="M499.965,929.04c0.48-0.377,1.077-0.612,1.735-0.612c0.091,0,0.181,0.005,0.27,0.013
							c-0.466-0.34-1.041-0.542-1.663-0.542c-0.859,0-1.619,0.392-2.137,0.998c-0.111,0-0.218,0.013-0.328,0.016
							c0.086-0.167,0.139-0.354,0.139-0.555c0-0.509-0.311-0.945-0.752-1.13c0.19,0.275,0.301,0.608,0.301,0.968
							c0,0.267-0.066,0.517-0.176,0.742c-6.119,0.437-10.95,5.527-10.95,11.757c0,6.516,5.283,11.799,11.799,11.799
							c6.517,0,11.8-5.283,11.8-11.799C510.004,934.777,505.644,929.892,499.965,929.04 M495.61,932.114
							c0.947,0,1.837,0.244,2.611,0.674c0.813-0.532,1.785-0.842,2.828-0.842c1.547,0,2.934,0.68,3.883,1.756
							c-0.948-0.826-2.186-1.328-3.541-1.328c-0.977,0-1.895,0.261-2.686,0.716c-0.172,0.1-0.34,0.208-0.499,0.326
							c-0.142-0.104-0.29-0.203-0.444-0.292c-0.803-0.476-1.741-0.749-2.743-0.749c-0.653,0-1.279,0.117-1.86,0.331
							C493.895,932.328,494.727,932.114,495.61,932.114 M503.858,941.785c0.25,0.664,0.394,1.38,0.394,2.131
							c0,3.34-2.707,6.047-6.047,6.047c-3.339,0-6.047-2.707-6.047-6.047c0-0.751,0.143-1.467,0.394-2.131
							c-1.35-0.831-2.253-2.317-2.253-4.019c0-2.607,2.114-4.72,4.72-4.72c1.23,0,2.346,0.474,3.186,1.244
							c0.84-0.77,1.956-1.244,3.186-1.244c2.607,0,4.72,2.113,4.72,4.72C506.111,939.467,505.208,940.954,503.858,941.785"/>
					</g>
					<g>
						<path style="fill:#444444;" d="M503.627,937.351c0,1.082-0.879,1.961-1.961,1.961c-1.082,0-1.961-0.879-1.961-1.961
							s0.879-1.961,1.961-1.961c0.22,0,0.428,0.037,0.625,0.102c-0.065,0.135-0.099,0.287-0.099,0.445
							c0,0.595,0.482,1.076,1.077,1.076c0.11,0,0.217-0.017,0.318-0.048C503.613,937.089,503.627,937.218,503.627,937.351"/>
					</g>
					<g>
						<path style="fill:#444444;" d="M496.201,937.351c0,0.818-0.665,1.482-1.483,1.482c-0.818,0-1.483-0.664-1.483-1.482
							s0.665-1.483,1.483-1.483c0.166,0,0.324,0.027,0.473,0.077c-0.049,0.102-0.075,0.217-0.075,0.337
							c0,0.449,0.364,0.814,0.814,0.814c0.083,0,0.164-0.013,0.241-0.036C496.191,937.153,496.201,937.251,496.201,937.351"/>
					</g>
					<g>
						<g>
							<g>
								<rect x="484.56" y="939.024" style="fill:#606060;" width="1.34" height="1.34"/>
							</g>
							<g>
								<rect x="510.51" y="939.024" style="fill:#606060;" width="1.34" height="1.34"/>
							</g>
							<g>
								<path style="fill:#606060;" d="M511.332,939.572h-0.304c0-7.07-5.752-12.823-12.823-12.823
									c-7.07,0-12.823,5.753-12.823,12.823h-0.305c0-3.506,1.365-6.803,3.845-9.282c2.479-2.48,5.776-3.845,9.282-3.845
									c3.507,0,6.803,1.365,9.283,3.845C509.966,932.769,511.332,936.065,511.332,939.572"/>
							</g>
						</g>
						<g>
							<rect x="497.534" y="925.927" style="fill:#606060;" width="1.34" height="1.34"/>
						</g>
						<g>
							<rect x="489.006" y="926.445" style="fill:#606060;" width="18.397" height="0.304"/>
						</g>
						<g>
							<path style="fill:#606060;" d="M489.494,926.658c0,0.235-0.191,0.427-0.427,0.427c-0.235,0-0.426-0.191-0.426-0.427
								s0.191-0.427,0.426-0.427C489.303,926.231,489.494,926.422,489.494,926.658"/>
						</g>
						<g>
							<path style="fill:#606060;" d="M507.829,926.658c0,0.235-0.191,0.427-0.427,0.427c-0.235,0-0.426-0.191-0.426-0.427
								s0.191-0.427,0.426-0.427C507.639,926.231,507.829,926.422,507.829,926.658"/>
						</g>
					</g>
				</g>
				<g>
					<path style="fill:#606060;" d="M640.109,951.171c0,3.395-5.146,3.395-5.146,0C634.963,947.779,640.109,947.779,640.109,951.171
						z"/>
				</g>
				<g>
					<g>
						<g>
							<path style="fill:#606060;" d="M307.849,936.236l3.859,13.253l4.038-13.253h4.823l-6.145,17.721h-5.073l-1.822-5.216
								l-1.572-5.896l-1.571,5.896l-1.822,5.216h-5.073l-6.18-17.721h4.858l4.038,13.253l3.822-13.253H307.849z"/>
						</g>
						<g>
							<path style="fill:#606060;" d="M340.449,936.236l3.859,13.253l4.038-13.253h4.823l-6.145,17.721h-5.073l-1.822-5.216
								l-1.571-5.896l-1.572,5.896l-1.822,5.216h-5.073l-6.18-17.721h4.858l4.038,13.253l3.822-13.253H340.449z"/>
						</g>
						<g>
							<path style="fill:#606060;" d="M373.048,936.236l3.859,13.253l4.038-13.253h4.823l-6.145,17.721h-5.073l-1.822-5.216
								l-1.572-5.896l-1.571,5.896l-1.822,5.216h-5.073l-6.18-17.721h4.858l4.038,13.253l3.822-13.253H373.048z"/>
						</g>
					</g>
					<g>
						<path style="fill:#606060;" d="M393.123,951.412c0,3.395-5.146,3.395-5.146,0C387.977,948.02,393.123,948.02,393.123,951.412z
							"/>
					</g>
					<g>
						<path style="fill:#606060;" d="M658.296,951.171c-2.036,2.001-4.177,2.787-6.787,2.787c-5.108,0-9.361-3.072-9.361-9.323
							c0-6.251,4.253-9.326,9.361-9.326c2.502,0,4.43,0.716,6.359,2.609l-2.752,2.894c-1.036-0.931-2.321-1.393-3.534-1.393
							c-2.929,0-5.073,2.144-5.073,5.216c0,3.357,2.286,5.143,5,5.143c1.393,0,2.787-0.393,3.857-1.463L658.296,951.171z"/>
					</g>
					<g>
						<path style="fill:#606060;" d="M678.097,944.777c0,5.073-3.465,9.181-9.181,9.181c-5.716,0-9.146-4.107-9.146-9.181
							c0-5.038,3.502-9.181,9.111-9.181S678.097,939.739,678.097,944.777z M664.128,944.777c0,2.679,1.609,5.181,4.788,5.181
							c3.179,0,4.788-2.502,4.788-5.181c0-2.644-1.859-5.216-4.788-5.216C665.772,939.561,664.128,942.133,664.128,944.777z"/>
					</g>
					<g>
						<path style="fill:#606060;" d="M692.828,953.958v-9.431c0-2.324-1.216-4.43-3.61-4.43c-2.356,0-3.75,2.106-3.75,4.43v9.431
							h-4.36v-17.649h4.038l0.323,2.144c0.928-1.786,2.964-2.429,4.643-2.429c2.109,0,4.218,0.858,5.216,3.287
							c1.574-2.502,3.61-3.217,5.896-3.217c5,0,7.467,3.075,7.467,8.36v9.504h-4.361v-9.504c0-2.321-0.963-4.288-3.322-4.288
							c-2.356,0-3.822,2.036-3.822,4.36v9.431H692.828z"/>
					</g>
				</g>
			</g>
		</g>
		<g style="opacity:0.61;">
			<g>
				<g>
					<path style="fill:#606060;" d="M708.973,859.493c-0.013-2.665-2.087-4.618-4.766-4.659c-2.011-0.031-1.81,0.261-1.815-1.887
						c-0.006-2.389-0.015-4.778,0.006-7.166c0.007-0.824-0.243-1.505-0.787-2.125c-5.098-5.81-10.184-11.63-15.281-17.441
						c-0.262-0.299-0.599-0.532-0.901-0.796c-13.528,0-27.055,0-40.583,0c-1.729,0.639-2.482,1.889-2.478,3.72
						c0.021,8.159,0.009,16.318,0.008,24.478c0,1.21-0.007,1.281-1.197,1.201c-3.258-0.221-5.477,2.147-5.436,5.426
						c0.096,7.568,0.028,15.137,0.031,22.706c0.001,3.44,1.887,5.32,5.333,5.331c1.267,0.004,1.268,0.004,1.268,1.306
						c0.001,4.831-0.002,9.662,0.002,14.493c0.002,2.595,1.262,3.855,3.85,3.855c17.446,0.001,34.891,0.001,52.337,0
						c2.543,0,3.822-1.268,3.824-3.799c0.005-4.912,0.001-9.823,0.003-14.735c0-1.115,0.005-1.112,1.131-1.121
						c0.589-0.005,1.177,0.017,1.761-0.127c2.169-0.535,3.68-2.273,3.689-4.503C709.007,875.597,709.011,867.545,708.973,859.493z
						 M647.034,828.716c11.619-0.001,23.237-0.001,34.856,0c1.193,0,1.206,0.015,1.207,1.222c0.001,4.884-0.002,9.767,0.002,14.651
						c0.001,1.765,0.543,2.305,2.307,2.306c4.159,0.003,8.318,0,12.477,0.003c0.997,0.001,1.044,0.046,1.046,1.052
						c0.006,1.932,0.005,3.864,0,5.796c-0.003,1.038-0.051,1.085-1.098,1.085c-8.479,0.002-16.958,0.001-25.438,0.001
						c-8.452,0-16.905,0-25.357,0c-1.198,0-1.202-0.003-1.202-1.221c-0.001-7.889-0.001-15.778,0-23.667
						C645.835,828.724,645.844,828.716,647.034,828.716z M697.728,903.645c-8.454,0.001-16.908,0.001-25.362,0.001
						c-8.427,0-16.854,0.001-25.281,0c-1.245,0-1.249-0.003-1.249-1.262c-0.001-4.348-0.003-8.696,0.001-13.043
						c0.001-1.01,0.051-1.059,1.041-1.059c16.989-0.002,33.977-0.002,50.966,0c1.041,0,1.086,0.044,1.087,1.094
						c0.003,4.348,0.003,8.696,0.001,13.043C698.931,903.634,698.92,903.645,697.728,903.645z"/>
				</g>
				<g>
					<g>
						<rect x="668.546" y="828.478" style="fill:#606060;" width="3.825" height="2.295"/>
					</g>
					<g>
						<rect x="664.722" y="830.773" style="fill:#606060;" width="3.825" height="2.295"/>
					</g>
					<g>
						<rect x="668.546" y="833.068" style="fill:#606060;" width="3.825" height="2.295"/>
					</g>
					<g>
						<rect x="664.722" y="835.363" style="fill:#606060;" width="3.825" height="2.295"/>
					</g>
					<g>
						<rect x="668.546" y="837.658" style="fill:#606060;" width="3.825" height="2.295"/>
					</g>
					<g>
						<rect x="664.722" y="839.953" style="fill:#606060;" width="3.825" height="2.295"/>
					</g>
					<g>
						<rect x="668.546" y="842.247" style="fill:#606060;" width="3.825" height="2.295"/>
					</g>
					<g>
						<rect x="664.722" y="844.542" style="fill:#606060;" width="3.825" height="2.295"/>
					</g>
					<g>
						<rect x="668.546" y="846.837" style="fill:#606060;" width="3.825" height="2.295"/>
					</g>
					<g>
						<rect x="664.722" y="849.132" style="fill:#606060;" width="3.825" height="2.295"/>
					</g>
					<g>
						<rect x="668.546" y="851.427" style="fill:#606060;" width="3.825" height="2.295"/>
					</g>
					<g>
						<rect x="664.722" y="853.722" style="fill:#606060;" width="3.825" height="2.295"/>
					</g>
				</g>
			</g>
			<g>
				<path style="fill:#606060;" d="M364.231,859.493c-0.013-2.665-2.087-4.618-4.766-4.659c-2.011-0.031-1.81,0.261-1.815-1.887
					c-0.006-2.389-0.015-4.778,0.006-7.166c0.007-0.824-0.243-1.505-0.787-2.125c-5.098-5.81-10.184-11.63-15.281-17.441
					c-0.262-0.299-0.599-0.532-0.901-0.796c-13.528,0-27.055,0-40.583,0c-1.729,0.639-2.482,1.889-2.478,3.72
					c0.021,8.159,0.009,16.318,0.008,24.478c0,1.21-0.007,1.281-1.197,1.201c-3.258-0.221-5.477,2.147-5.436,5.426
					c0.096,7.568,0.028,15.137,0.031,22.706c0.001,3.44,1.887,5.32,5.333,5.331c1.267,0.004,1.268,0.004,1.268,1.306
					c0.001,4.831-0.002,9.662,0.002,14.493c0.002,2.595,1.262,3.855,3.85,3.855c17.446,0.001,34.891,0.001,52.337,0
					c2.543,0,3.822-1.268,3.824-3.799c0.005-4.912,0.001-9.823,0.003-14.735c0-1.115,0.004-1.112,1.131-1.121
					c0.589-0.005,1.177,0.017,1.761-0.127c2.169-0.535,3.68-2.273,3.689-4.503C364.264,875.597,364.269,867.545,364.231,859.493z
					 M302.292,828.716c11.619-0.001,23.237-0.001,34.856,0c1.192,0,1.206,0.015,1.207,1.222c0.001,4.884-0.001,9.767,0.002,14.651
					c0.001,1.765,0.543,2.305,2.307,2.306c4.159,0.003,8.318,0,12.477,0.003c0.997,0.001,1.044,0.046,1.046,1.052
					c0.006,1.932,0.005,3.864,0,5.796c-0.003,1.038-0.051,1.085-1.098,1.085c-8.479,0.002-16.958,0.001-25.438,0.001
					c-8.452,0-16.905,0-25.357,0c-1.198,0-1.202-0.003-1.202-1.221c-0.001-7.889-0.001-15.778,0-23.667
					C301.093,828.724,301.102,828.716,302.292,828.716z M352.985,903.645c-8.454,0.001-16.908,0.001-25.362,0.001
					c-8.427,0-16.854,0.001-25.281,0c-1.245,0-1.249-0.003-1.249-1.262c-0.001-4.348-0.003-8.696,0.001-13.043
					c0.001-1.01,0.051-1.059,1.041-1.059c16.989-0.002,33.977-0.002,50.966,0c1.041,0,1.086,0.044,1.087,1.094
					c0.003,4.348,0.003,8.696,0.001,13.043C354.188,903.634,354.177,903.645,352.985,903.645z"/>
			</g>
			<g>
				<path style="fill:#FFFFFF;" d="M303.581,879.891v-17.193h6.051c0.816,0,1.581,0.132,2.293,0.396
					c0.712,0.264,1.333,0.636,1.861,1.117c0.527,0.48,0.944,1.053,1.248,1.717c0.304,0.665,0.456,1.397,0.456,2.198
					c0,0.816-0.152,1.557-0.456,2.221s-0.721,1.236-1.248,1.717c-0.529,0.48-1.149,0.852-1.861,1.117
					c-0.713,0.264-1.477,0.396-2.293,0.396h-2.809v6.315H303.581z M309.68,870.503c0.848,0,1.489-0.241,1.921-0.721
					c0.432-0.48,0.648-1.032,0.648-1.656c0-0.304-0.052-0.601-0.156-0.889c-0.105-0.288-0.264-0.54-0.48-0.756
					c-0.216-0.217-0.484-0.388-0.805-0.516c-0.32-0.129-0.696-0.193-1.128-0.193h-2.857v4.731H309.68z"/>
				<path style="fill:#FFFFFF;" d="M317.796,862.699h3.77l6.916,11.526h0.191l-0.191-3.314v-8.212h3.217v17.193h-3.409l-7.3-12.174
					h-0.191l0.191,3.314v8.86h-3.193V862.699z"/>
				<path style="fill:#FFFFFF;" d="M343.08,870.454h8.429c0.048,0.193,0.087,0.425,0.12,0.697c0.031,0.272,0.048,0.544,0.048,0.816
					c0,1.104-0.167,2.145-0.504,3.121c-0.336,0.977-0.865,1.849-1.585,2.618c-0.768,0.817-1.69,1.449-2.761,1.897
					c-1.073,0.448-2.298,0.672-3.674,0.672c-1.249,0-2.426-0.224-3.53-0.672c-1.104-0.447-2.065-1.072-2.881-1.873
					c-0.816-0.8-1.465-1.749-1.945-2.845c-0.48-1.097-0.72-2.293-0.72-3.59c0-1.296,0.24-2.493,0.72-3.589s1.129-2.045,1.945-2.845
					c0.816-0.8,1.777-1.425,2.881-1.873c1.104-0.448,2.281-0.672,3.53-0.672c1.392,0,2.637,0.24,3.734,0.72
					c1.097,0.48,2.036,1.144,2.821,1.993l-2.232,2.185c-0.562-0.592-1.185-1.044-1.874-1.357s-1.513-0.468-2.473-0.468
					c-0.786,0-1.53,0.14-2.234,0.421c-0.705,0.28-1.321,0.676-1.85,1.188c-0.527,0.512-0.949,1.133-1.259,1.861
					c-0.312,0.728-0.469,1.541-0.469,2.437c0,0.897,0.157,1.709,0.469,2.438c0.311,0.728,0.735,1.349,1.271,1.861
					c0.536,0.512,1.156,0.909,1.862,1.188c0.704,0.281,1.457,0.421,2.258,0.421c0.911,0,1.684-0.132,2.317-0.396
					c0.632-0.264,1.171-0.604,1.62-1.021c0.321-0.288,0.598-0.652,0.829-1.092s0.412-0.932,0.541-1.477h-5.404V870.454z"/>
			</g>
			<g>
				<path style="fill:#606060;" d="M443.437,859.493c-0.013-2.665-2.087-4.618-4.766-4.659c-2.011-0.031-1.81,0.261-1.815-1.887
					c-0.006-2.389-0.015-4.778,0.006-7.166c0.007-0.824-0.243-1.505-0.787-2.125c-5.098-5.81-10.184-11.63-15.281-17.441
					c-0.262-0.299-0.599-0.532-0.901-0.796c-13.528,0-27.055,0-40.583,0c-1.729,0.639-2.482,1.889-2.478,3.72
					c0.021,8.159,0.009,16.318,0.008,24.478c0,1.21-0.007,1.281-1.197,1.201c-3.258-0.221-5.477,2.147-5.436,5.426
					c0.096,7.568,0.028,15.137,0.031,22.706c0.001,3.44,1.887,5.32,5.333,5.331c1.267,0.004,1.268,0.004,1.268,1.306
					c0.001,4.831-0.002,9.662,0.002,14.493c0.002,2.595,1.262,3.855,3.85,3.855c17.446,0.001,34.891,0.001,52.337,0
					c2.543,0,3.822-1.268,3.824-3.799c0.005-4.912,0.001-9.823,0.003-14.735c0-1.115,0.004-1.112,1.131-1.121
					c0.589-0.005,1.177,0.017,1.761-0.127c2.169-0.535,3.68-2.273,3.689-4.503C443.47,875.597,443.475,867.545,443.437,859.493z
					 M381.498,828.716c11.619-0.001,23.237-0.001,34.856,0c1.192,0,1.206,0.015,1.207,1.222c0.001,4.884-0.001,9.767,0.002,14.651
					c0.001,1.765,0.543,2.305,2.307,2.306c4.159,0.003,8.318,0,12.477,0.003c0.997,0.001,1.044,0.046,1.046,1.052
					c0.006,1.932,0.005,3.864,0,5.796c-0.003,1.038-0.051,1.085-1.098,1.085c-8.479,0.002-16.958,0.001-25.438,0.001
					c-8.452,0-16.905,0-25.357,0c-1.198,0-1.202-0.003-1.202-1.221c-0.001-7.889-0.001-15.778,0-23.667
					C380.299,828.724,380.308,828.716,381.498,828.716z M432.192,903.645c-8.454,0.001-16.908,0.001-25.362,0.001
					c-8.427,0-16.854,0.001-25.281,0c-1.245,0-1.249-0.003-1.249-1.262c-0.001-4.348-0.002-8.696,0.001-13.043
					c0.001-1.01,0.051-1.059,1.041-1.059c16.989-0.002,33.977-0.002,50.966,0c1.041,0,1.086,0.044,1.087,1.094
					c0.003,4.348,0.003,8.696,0.001,13.043C433.394,903.634,433.384,903.645,432.192,903.645z"/>
			</g>
			<g>
				<path style="fill:#FFFFFF;" d="M402.272,862.699h3.698l6.46,17.193h-3.578l-1.416-4.106h-6.628l-1.417,4.106h-3.578
					L402.272,862.699z M406.379,872.808l-1.537-4.298l-0.625-2.089h-0.192l-0.625,2.089l-1.537,4.298H406.379z"/>
				<path style="fill:#FFFFFF;" d="M415.815,866.541c-0.273,0-0.533-0.052-0.781-0.156c-0.248-0.104-0.465-0.248-0.648-0.432
					c-0.184-0.184-0.328-0.396-0.432-0.636c-0.105-0.241-0.156-0.504-0.156-0.793s0.052-0.552,0.156-0.793
					c0.104-0.24,0.248-0.452,0.432-0.636c0.184-0.184,0.4-0.328,0.648-0.432c0.248-0.104,0.508-0.156,0.781-0.156
					c0.56,0,1.041,0.196,1.441,0.588c0.4,0.393,0.601,0.869,0.601,1.429c0,0.56-0.201,1.037-0.601,1.428
					C416.856,866.345,416.375,866.541,415.815,866.541z M414.255,879.891v-11.766h3.145v11.766H414.255z"/>
			</g>
			<g>
				<path style="fill:#606060;" d="M524.043,859.493c-0.013-2.665-2.087-4.618-4.766-4.659c-2.011-0.031-1.81,0.261-1.815-1.887
					c-0.006-2.389-0.015-4.778,0.006-7.166c0.007-0.824-0.243-1.505-0.787-2.125c-5.098-5.81-10.184-11.63-15.281-17.441
					c-0.262-0.299-0.599-0.532-0.901-0.796c-13.528,0-27.055,0-40.583,0c-1.729,0.639-2.482,1.889-2.478,3.72
					c0.021,8.159,0.009,16.318,0.008,24.478c0,1.21-0.007,1.281-1.197,1.201c-3.258-0.221-5.477,2.147-5.436,5.426
					c0.096,7.568,0.028,15.137,0.031,22.706c0.001,3.44,1.887,5.32,5.333,5.331c1.267,0.004,1.268,0.004,1.268,1.306
					c0.001,4.831-0.002,9.662,0.002,14.493c0.002,2.595,1.262,3.855,3.85,3.855c17.446,0.001,34.891,0.001,52.337,0
					c2.543,0,3.822-1.268,3.824-3.799c0.005-4.912,0.001-9.823,0.003-14.735c0-1.115,0.004-1.112,1.131-1.121
					c0.589-0.005,1.177,0.017,1.761-0.127c2.169-0.535,3.68-2.273,3.689-4.503C524.076,875.597,524.081,867.545,524.043,859.493z
					 M462.104,828.716c11.619-0.001,23.237-0.001,34.856,0c1.192,0,1.206,0.015,1.207,1.222c0.001,4.884-0.001,9.767,0.002,14.651
					c0.001,1.765,0.543,2.305,2.307,2.306c4.159,0.003,8.318,0,12.477,0.003c0.997,0.001,1.044,0.046,1.046,1.052
					c0.006,1.932,0.005,3.864,0,5.796c-0.003,1.038-0.051,1.085-1.098,1.085c-8.479,0.002-16.958,0.001-25.438,0.001
					c-8.452,0-16.905,0-25.357,0c-1.198,0-1.202-0.003-1.202-1.221c-0.001-7.889-0.001-15.778,0-23.667
					C460.905,828.724,460.914,828.716,462.104,828.716z M512.798,903.645c-8.454,0.001-16.908,0.001-25.362,0.001
					c-8.427,0-16.854,0.001-25.281,0c-1.245,0-1.249-0.003-1.249-1.262c-0.001-4.348-0.002-8.696,0.001-13.043
					c0.001-1.01,0.051-1.059,1.041-1.059c16.989-0.002,33.977-0.002,50.966,0c1.041,0,1.086,0.044,1.087,1.094
					c0.003,4.348,0.003,8.696,0.001,13.043C514,903.634,513.989,903.645,512.798,903.645z"/>
			</g>
			<g>
				<path style="fill:#FFFFFF;" d="M470.308,880.275c-0.737,0-1.441-0.104-2.113-0.312c-0.672-0.208-1.289-0.52-1.849-0.936
					c-0.56-0.416-1.048-0.925-1.464-1.525c-0.417-0.601-0.745-1.301-0.985-2.101l3.049-1.2c0.224,0.864,0.616,1.581,1.177,2.149
					s1.297,0.852,2.209,0.852c0.336,0,0.66-0.044,0.973-0.132c0.312-0.087,0.592-0.216,0.84-0.384
					c0.248-0.168,0.444-0.38,0.589-0.636c0.144-0.256,0.216-0.552,0.216-0.888c0-0.32-0.056-0.608-0.168-0.865
					c-0.112-0.255-0.3-0.495-0.564-0.72c-0.264-0.224-0.609-0.44-1.033-0.648c-0.424-0.208-0.948-0.424-1.572-0.648l-1.056-0.384
					c-0.465-0.16-0.933-0.376-1.405-0.648c-0.472-0.272-0.9-0.6-1.284-0.985c-0.385-0.384-0.701-0.836-0.949-1.357
					c-0.249-0.52-0.372-1.108-0.372-1.765c0-0.672,0.132-1.301,0.396-1.885c0.264-0.584,0.64-1.096,1.129-1.537
					c0.488-0.44,1.072-0.784,1.753-1.032c0.681-0.248,1.437-0.372,2.269-0.372c0.864,0,1.612,0.116,2.245,0.348
					c0.633,0.232,1.168,0.528,1.609,0.888c0.44,0.36,0.796,0.757,1.068,1.188c0.272,0.433,0.472,0.84,0.601,1.225l-2.857,1.2
					c-0.161-0.48-0.453-0.913-0.876-1.297c-0.425-0.384-1.005-0.576-1.741-0.576c-0.704,0-1.289,0.164-1.753,0.492
					c-0.465,0.329-0.697,0.757-0.697,1.285c0,0.512,0.224,0.949,0.672,1.309c0.448,0.36,1.161,0.708,2.137,1.044l1.081,0.36
					c0.688,0.241,1.316,0.517,1.885,0.828c0.568,0.312,1.056,0.684,1.465,1.117c0.408,0.433,0.72,0.925,0.936,1.477
					c0.217,0.552,0.324,1.189,0.324,1.909c0,0.897-0.18,1.669-0.54,2.317c-0.36,0.648-0.82,1.181-1.38,1.597
					c-0.561,0.416-1.193,0.728-1.897,0.936C471.668,880.172,470.98,880.275,470.308,880.275z"/>
				<path style="fill:#FFFFFF;" d="M477.175,862.699h3.506l3.554,10.349l0.625,2.209h0.192l0.672-2.209l3.698-10.349h3.506
					l-6.268,17.193h-3.409L477.175,862.699z"/>
				<path style="fill:#FFFFFF;" d="M502.388,870.454h8.428c0.048,0.193,0.088,0.425,0.12,0.697c0.033,0.272,0.049,0.544,0.049,0.816
					c0,1.104-0.169,2.145-0.505,3.121c-0.336,0.977-0.864,1.849-1.585,2.618c-0.768,0.817-1.688,1.449-2.761,1.897
					c-1.073,0.448-2.298,0.672-3.674,0.672c-1.249,0-2.425-0.224-3.529-0.672c-1.105-0.447-2.066-1.072-2.882-1.873
					c-0.816-0.8-1.465-1.749-1.945-2.845c-0.48-1.097-0.72-2.293-0.72-3.59c0-1.296,0.241-2.493,0.72-3.589
					c0.48-1.097,1.129-2.045,1.945-2.845c0.816-0.8,1.777-1.425,2.882-1.873c1.104-0.448,2.28-0.672,3.529-0.672
					c1.392,0,2.637,0.24,3.734,0.72c1.097,0.48,2.038,1.144,2.822,1.993l-2.234,2.185c-0.56-0.592-1.185-1.044-1.874-1.357
					c-0.687-0.312-1.512-0.468-2.473-0.468c-0.784,0-1.528,0.14-2.234,0.421c-0.704,0.28-1.321,0.676-1.848,1.188
					c-0.528,0.512-0.949,1.133-1.261,1.861c-0.312,0.728-0.468,1.541-0.468,2.437c0,0.897,0.156,1.709,0.468,2.438
					c0.312,0.728,0.737,1.349,1.273,1.861c0.536,0.512,1.156,0.909,1.86,1.188c0.705,0.281,1.457,0.421,2.258,0.421
					c0.913,0,1.685-0.132,2.317-0.396c0.632-0.264,1.173-0.604,1.621-1.021c0.32-0.288,0.596-0.652,0.828-1.092
					c0.233-0.44,0.412-0.932,0.541-1.477h-5.402V870.454z"/>
			</g>
			<g>
				<path style="fill:#606060;" d="M602.976,859.493c-0.013-2.665-2.087-4.618-4.766-4.659c-2.011-0.031-1.81,0.261-1.815-1.887
					c-0.006-2.389-0.015-4.778,0.006-7.166c0.007-0.824-0.243-1.505-0.787-2.125c-5.098-5.81-10.184-11.63-15.281-17.441
					c-0.262-0.299-0.599-0.532-0.901-0.796c-13.528,0-27.055,0-40.583,0c-1.729,0.639-2.482,1.889-2.478,3.72
					c0.021,8.159,0.009,16.318,0.008,24.478c0,1.21-0.007,1.281-1.197,1.201c-3.258-0.221-5.477,2.147-5.436,5.426
					c0.096,7.568,0.028,15.137,0.031,22.706c0.001,3.44,1.887,5.32,5.333,5.331c1.267,0.004,1.268,0.004,1.268,1.306
					c0.001,4.831-0.002,9.662,0.002,14.493c0.002,2.595,1.262,3.855,3.85,3.855c17.446,0.001,34.891,0.001,52.337,0
					c2.543,0,3.822-1.268,3.824-3.799c0.005-4.912,0.001-9.823,0.003-14.735c0-1.115,0.005-1.112,1.131-1.121
					c0.589-0.005,1.178,0.017,1.761-0.127c2.169-0.535,3.68-2.273,3.689-4.503C603.01,875.597,603.015,867.545,602.976,859.493z
					 M541.037,828.716c11.619-0.001,23.237-0.001,34.856,0c1.193,0,1.206,0.015,1.207,1.222c0.001,4.884-0.002,9.767,0.002,14.651
					c0.001,1.765,0.543,2.305,2.307,2.306c4.159,0.003,8.318,0,12.477,0.003c0.997,0.001,1.044,0.046,1.046,1.052
					c0.006,1.932,0.005,3.864,0,5.796c-0.003,1.038-0.051,1.085-1.098,1.085c-8.479,0.002-16.958,0.001-25.438,0.001
					c-8.452,0-16.905,0-25.357,0c-1.198,0-1.202-0.003-1.202-1.221c-0.001-7.889-0.001-15.778,0-23.667
					C539.838,828.724,539.847,828.716,541.037,828.716z M591.731,903.645c-8.454,0.001-16.908,0.001-25.362,0.001
					c-8.427,0-16.854,0.001-25.281,0c-1.245,0-1.249-0.003-1.249-1.262c-0.001-4.348-0.003-8.696,0.001-13.043
					c0.001-1.01,0.051-1.059,1.041-1.059c16.989-0.002,33.977-0.002,50.966,0c1.041,0,1.086,0.044,1.087,1.094
					c0.003,4.348,0.003,8.696,0.001,13.043C592.934,903.634,592.923,903.645,591.731,903.645z"/>
			</g>
			<g>
				<path style="fill:#FFFFFF;" d="M549.998,865.772v3.986h6.891v3.074h-6.891v3.986h7.659v3.073h-10.901v-17.193h10.901v3.073
					H549.998z"/>
				<path style="fill:#FFFFFF;" d="M560.635,879.891v-17.193h6.051c0.816,0,1.581,0.132,2.293,0.396
					c0.712,0.264,1.333,0.636,1.861,1.117c0.528,0.48,0.944,1.053,1.249,1.717c0.304,0.665,0.456,1.397,0.456,2.198
					c0,0.816-0.152,1.557-0.456,2.221c-0.305,0.664-0.721,1.236-1.249,1.717c-0.528,0.48-1.149,0.852-1.861,1.117
					c-0.713,0.264-1.477,0.396-2.293,0.396h-2.809v6.315H560.635z M566.735,870.503c0.848,0,1.489-0.241,1.921-0.721
					c0.432-0.48,0.648-1.032,0.648-1.656c0-0.304-0.052-0.601-0.156-0.889c-0.105-0.288-0.264-0.54-0.48-0.756
					c-0.216-0.217-0.484-0.388-0.805-0.516c-0.32-0.129-0.696-0.193-1.128-0.193h-2.857v4.731H566.735z"/>
				<path style="fill:#FFFFFF;" d="M580.109,880.275c-0.737,0-1.441-0.104-2.113-0.312c-0.672-0.208-1.289-0.52-1.849-0.936
					c-0.56-0.416-1.049-0.925-1.465-1.525c-0.416-0.601-0.744-1.301-0.985-2.101l3.049-1.2c0.224,0.864,0.616,1.581,1.177,2.149
					c0.56,0.568,1.296,0.852,2.209,0.852c0.336,0,0.66-0.044,0.973-0.132c0.312-0.087,0.592-0.216,0.84-0.384
					c0.248-0.168,0.444-0.38,0.588-0.636c0.144-0.256,0.217-0.552,0.217-0.888c0-0.32-0.057-0.608-0.168-0.865
					c-0.112-0.255-0.3-0.495-0.565-0.72c-0.264-0.224-0.608-0.44-1.032-0.648c-0.424-0.208-0.949-0.424-1.573-0.648l-1.056-0.384
					c-0.465-0.16-0.932-0.376-1.404-0.648c-0.473-0.272-0.901-0.6-1.285-0.985c-0.384-0.384-0.701-0.836-0.949-1.357
					c-0.248-0.52-0.372-1.108-0.372-1.765c0-0.672,0.132-1.301,0.396-1.885c0.264-0.584,0.64-1.096,1.129-1.537
					c0.489-0.44,1.073-0.784,1.753-1.032c0.68-0.248,1.437-0.372,2.269-0.372c0.865,0,1.613,0.116,2.246,0.348
					c0.632,0.232,1.168,0.528,1.609,0.888c0.44,0.36,0.796,0.757,1.068,1.188c0.272,0.433,0.472,0.84,0.601,1.225l-2.857,1.2
					c-0.161-0.48-0.453-0.913-0.877-1.297s-1.005-0.576-1.741-0.576c-0.705,0-1.289,0.164-1.753,0.492
					c-0.465,0.329-0.696,0.757-0.696,1.285c0,0.512,0.224,0.949,0.672,1.309c0.448,0.36,1.16,0.708,2.137,1.044l1.08,0.36
					c0.689,0.241,1.317,0.517,1.885,0.828c0.568,0.312,1.056,0.684,1.465,1.117c0.408,0.433,0.72,0.925,0.936,1.477
					c0.216,0.552,0.324,1.189,0.324,1.909c0,0.897-0.18,1.669-0.54,2.317c-0.36,0.648-0.821,1.181-1.38,1.597
					c-0.561,0.416-1.193,0.728-1.897,0.936C581.47,880.172,580.782,880.275,580.109,880.275z"/>
			</g>
			<g>
				<path style="fill:#FFFFFF;" d="M655.431,876.625l8.716-10.854h-8.332v-3.073h12.103v3.266l-8.621,10.854h8.716v3.073h-12.582
					V876.625z"/>
				<path style="fill:#FFFFFF;" d="M670.702,862.699h3.242v17.193h-3.242V862.699z"/>
				<path style="fill:#FFFFFF;" d="M677.402,879.891v-17.193h6.051c0.817,0,1.581,0.132,2.293,0.396
					c0.712,0.264,1.333,0.636,1.861,1.117s0.944,1.053,1.249,1.717c0.304,0.665,0.456,1.397,0.456,2.198
					c0,0.816-0.152,1.557-0.456,2.221c-0.305,0.664-0.721,1.236-1.249,1.717s-1.149,0.852-1.861,1.117
					c-0.713,0.264-1.477,0.396-2.293,0.396h-2.809v6.315H677.402z M683.501,870.503c0.848,0,1.489-0.241,1.921-0.721
					c0.433-0.48,0.648-1.032,0.648-1.656c0-0.304-0.052-0.601-0.156-0.889c-0.105-0.288-0.264-0.54-0.48-0.756
					c-0.216-0.217-0.484-0.388-0.805-0.516c-0.32-0.129-0.696-0.193-1.128-0.193h-2.857v4.731H683.501z"/>
			</g>
		</g>
		<g style="opacity:0.61;">
			<path style="fill:#606060;" d="M609.144,863.785h19.739v4.881h-19.739V863.785z M609.144,872.201h19.739v4.884h-19.739V872.201z"
				/>
		</g>
	</g>
	<g style="opacity:0.61;">
		<path style="fill:#606060;" d="M297,963.076h3.498c2.75,0,4.603,1.768,4.603,4.297s-1.854,4.296-4.603,4.296H297V963.076z
			 M300.449,970.883c2.283,0,3.756-1.448,3.756-3.51s-1.473-3.511-3.756-3.511h-2.541v7.021H300.449z"/>
		<path style="fill:#606060;" d="M315.251,967.373c0-2.504,1.915-4.37,4.517-4.37c2.577,0,4.505,1.853,4.505,4.37
			c0,2.516-1.927,4.369-4.505,4.369C317.166,971.742,315.251,969.877,315.251,967.373z M323.365,967.373
			c0-2.05-1.534-3.56-3.596-3.56c-2.075,0-3.621,1.51-3.621,3.56c0,2.049,1.546,3.559,3.621,3.559
			C321.831,970.932,323.365,969.422,323.365,967.373z"/>
		<path style="fill:#606060;" d="M346.724,963.076l-2.897,8.593h-0.957l-2.516-7.328l-2.529,7.328h-0.945l-2.897-8.593h0.933
			l2.479,7.389l2.566-7.389h0.847l2.529,7.426l2.516-7.426H346.724z"/>
		<path style="fill:#606060;" d="M364.435,963.076v8.593h-0.749l-5.524-6.972v6.972h-0.908v-8.593h0.749l5.536,6.973v-6.973H364.435
			z"/>
		<path style="fill:#606060;" d="M376.108,963.076h0.908v7.807h4.812v0.786h-5.72V963.076z"/>
		<path style="fill:#606060;" d="M391.279,967.373c0-2.504,1.915-4.37,4.517-4.37c2.577,0,4.505,1.853,4.505,4.37
			c0,2.516-1.927,4.369-4.505,4.369C393.194,971.742,391.279,969.877,391.279,967.373z M399.392,967.373
			c0-2.05-1.534-3.56-3.596-3.56c-2.075,0-3.621,1.51-3.621,3.56c0,2.049,1.546,3.559,3.621,3.559
			C397.858,970.932,399.392,969.422,399.392,967.373z"/>
		<path style="fill:#606060;" d="M416.478,969.374h-4.787l-1.031,2.295h-0.945l3.928-8.593h0.896l3.928,8.593h-0.957
			L416.478,969.374z M416.147,968.637l-2.062-4.615l-2.062,4.615H416.147z"/>
		<path style="fill:#606060;" d="M428.765,963.076h3.498c2.75,0,4.603,1.768,4.603,4.297s-1.854,4.296-4.603,4.296h-3.498V963.076z
			 M432.214,970.883c2.283,0,3.756-1.448,3.756-3.51s-1.473-3.511-3.756-3.511h-2.541v7.021H432.214z"/>
		<path style="fill:#606060;" d="M465.256,969.374h-4.787l-1.031,2.295h-0.945l3.928-8.593h0.896l3.928,8.593h-0.957
			L465.256,969.374z M464.925,968.637l-2.062-4.615l-2.062,4.615H464.925z"/>
		<path style="fill:#606060;" d="M477.543,963.076h0.908v7.807h4.812v0.786h-5.72V963.076z"/>
		<path style="fill:#606060;" d="M493.647,963.076h0.908v7.807h4.812v0.786h-5.72V963.076z"/>
		<path style="fill:#606060;" d="M522.749,963.862v3.376h4.443v0.786h-4.443v3.646h-0.909v-8.593h5.891v0.786H522.749z"/>
		<path style="fill:#606060;" d="M538.485,963.076h0.909v8.593h-0.909V963.076z"/>
		<path style="fill:#606060;" d="M551.067,963.076h0.909v7.807h4.811v0.786h-5.72V963.076z"/>
		<path style="fill:#606060;" d="M573.246,970.883v0.786h-6.076v-8.593h5.891v0.786h-4.983v3.056h4.443v0.774h-4.443v3.191H573.246z
			"/>
		<path style="fill:#606060;" d="M597.255,963.862v3.376h4.443v0.786h-4.443v3.646h-0.909v-8.593h5.891v0.786H597.255z"/>
		<path style="fill:#606060;" d="M612.119,967.373c0-2.504,1.915-4.37,4.517-4.37c2.577,0,4.505,1.853,4.505,4.37
			c0,2.516-1.927,4.369-4.505,4.369C614.034,971.742,612.119,969.877,612.119,967.373z M620.232,967.373
			c0-2.05-1.534-3.56-3.596-3.56c-2.075,0-3.622,1.51-3.622,3.56c0,2.049,1.547,3.559,3.622,3.559
			C618.698,970.932,620.232,969.422,620.232,967.373z"/>
		<path style="fill:#606060;" d="M637.919,971.669l-1.963-2.762c-0.222,0.024-0.442,0.037-0.688,0.037h-2.307v2.725h-0.909v-8.593
			h3.216c2.185,0,3.511,1.105,3.511,2.946c0,1.351-0.712,2.295-1.964,2.7l2.099,2.946H637.919z M637.871,966.022
			c0-1.375-0.909-2.161-2.627-2.161h-2.283v4.309h2.283C636.962,968.17,637.871,967.373,637.871,966.022z"/>
		<path style="fill:#606060;" d="M658.724,963.076v8.593h-0.871v-6.874l-3.376,5.782h-0.429l-3.376-5.745v6.837h-0.872v-8.593h0.749
			l3.732,6.371l3.695-6.371H658.724z"/>
		<path style="fill:#606060;" d="M675.787,969.374h-4.788l-1.031,2.295h-0.946l3.928-8.593h0.896l3.928,8.593h-0.957
			L675.787,969.374z M675.455,968.637l-2.062-4.615l-2.062,4.615H675.455z"/>
		<path style="fill:#606060;" d="M689.312,963.862h-3.02v-0.786h6.948v0.786h-3.02v7.807h-0.908V963.862z"/>
		<path style="fill:#606060;" d="M702.605,970.626l0.356-0.7c0.614,0.601,1.706,1.043,2.835,1.043c1.608,0,2.308-0.675,2.308-1.522
			c0-2.357-5.29-0.908-5.29-4.087c0-1.265,0.982-2.357,3.167-2.357c0.97,0,1.976,0.282,2.664,0.761l-0.307,0.724
			c-0.737-0.479-1.596-0.712-2.357-0.712c-1.571,0-2.271,0.7-2.271,1.559c0,2.357,5.29,0.933,5.29,4.063
			c0,1.265-1.006,2.344-3.204,2.344C704.508,971.742,703.243,971.288,702.605,970.626z"/>
	</g>
</g>
<g>
</g>
<g>
	<g>
		<g>
			<path style="fill:#5C2D91;" d="M333.404,540.146c-1.919,0-3.73,0-5.653,0c0,0.721,0,1.313,0,1.904
				c0,7.572,0.015,15.144-0.029,22.716c-0.004,0.618-0.223,1.52-0.66,1.806c-4.442,2.908-11.95,3.051-15.927,0.133
				c-2.49-1.828-2.892-4.904-0.94-7.289c1.33-1.625,3.045-2.617,5.138-2.854c1.754-0.198,3.518-0.304,5.267-0.45
				c0-1.679,0-3.234,0-4.948c-1.392,0-2.695,0.087-3.98-0.022c-1.661-0.14-3.339-0.315-4.953-0.707
				c-1.279-0.311-1.998-1.421-1.951-2.711c0.048-1.297,0.866-2.342,2.167-2.533c1.641-0.241,3.33-0.273,4.992-0.216
				c1.248,0.043,2.486,0.37,3.824,0.585c0-1.572,0.064-2.881-0.038-4.177c-0.031-0.398-0.446-0.985-0.81-1.104
				c-4.289-1.4-8.482-1.158-12.349,1.261c-4.806,3.006-4.821,8.714-0.135,11.941c0.258,0.177,0.491,0.389,0.879,0.7
				c-0.545,0.442-0.995,0.809-1.447,1.172c-3.076,2.474-4.374,6.533-3.191,10.246c1.206,3.787,4.015,5.986,7.605,7.269
				c3.364,1.202,6.859,1.336,10.399,1.055c4.082-0.323,7.759-1.625,10.743-4.474c0.613-0.585,1.071-1.653,1.079-2.503
				c0.079-8.388,0.049-16.778,0.044-25.167C333.478,541.251,333.431,540.721,333.404,540.146z"/>
			<path style="fill:#5C2D91;" d="M371.151,561.31c-0.547-0.339-0.696-0.613-0.799-0.903c-2.009-5.673-4.021-11.344-6.016-17.022
				c-1.197-3.408-1.184-3.377-4.728-3.39c-1.014-0.003-1.496,0.266-1.843,1.296c-2.096,6.218-4.283,12.406-6.455,18.599
				c-0.177,0.505-0.461,0.971-0.912,1.903c-2.076-7.603-4.009-14.679-5.929-21.712c-1.934,0-3.668,0-5.595,0
				c0.049,0.487,0.038,0.817,0.121,1.12c2.677,9.879,5.355,19.758,8.055,29.631c0.756,2.764,0.79,2.703,3.596,2.768
				c1.142,0.027,1.713-0.28,2.095-1.435c1.719-5.198,3.539-10.363,5.342-15.534c0.757-2.171,1.559-4.325,2.341-6.487
				c0.631,0.517,0.868,1.03,1.055,1.561c2.207,6.295,4.407,12.593,6.609,18.89c1.057,3.025,1.058,2.97,4.198,3.009
				c1.099,0.013,1.48-0.405,1.745-1.394c2.141-8.005,4.337-15.995,6.504-23.992c0.718-2.653,1.401-5.315,2.134-8.106
				c-2.046,0-3.873,0-5.728,0C374.995,547.231,373.073,554.271,371.151,561.31z"/>
			<path style="fill:#5C2D91;" d="M459.221,541.534c-0.004,6.265-0.135,12.533,0.044,18.793c0.118,4.12-1.671,6.469-5.621,7.942
				c-6.036,2.251-10.597-0.907-10.598-7.274c0-3.595,0.012-7.191-0.004-10.787c-0.012-2.499-0.954-4.611-2.614-6.481
				c-5.239-5.906-19.06-6.351-25.14,1.409c-0.589,0.752-1.138,1.79-1.15,2.702c-0.098,8.007-0.072,16.016-0.076,24.024
				c0,0.526,0.058,1.053,0.09,1.581c3.58,0,7.028,0,10.476,0c0-1.688,0-3.245,0-5.031c-1.632,0-3.176,0-4.756,0
				c-0.035-0.659-0.077-1.09-0.077-1.521c-0.003-6.047-0.02-12.094,0.038-18.141c0.005-0.496,0.421-1.113,0.827-1.463
				c3.338-2.864,7.234-3.252,11.318-2.246c3.185,0.784,5.609,2.895,5.399,7.058c-0.173,3.423-0.085,6.863-0.019,10.294
				c0.05,2.591,0.636,5.065,2.287,7.154c3.797,4.803,10.935,6.088,16.691,3.016c0.89-0.475,1.747-1.013,2.754-1.6
				c0.097,0.975,0.174,1.752,0.249,2.501c1.901,0,3.67,0,5.453,0c0-11.185,0-22.262,0-33.387c-1.863,0-3.595,0-5.5,0
				C459.262,540.679,459.221,541.106,459.221,541.534z"/>
			<path style="fill:#5C2D91;" d="M405.105,543.362c-4.181-4.987-13.423-4.696-17.732-2.581c-0.328,0.161-0.724,0.594-0.738,0.916
				c-0.074,1.696-0.035,3.397-0.035,5.218c1.283-0.58,2.281-1.134,3.346-1.486c1.122-0.369,2.295-0.663,3.467-0.784
				c4.131-0.423,7.421,1.226,8.465,5.334c0.277,1.09,0.383,2.25,0.39,3.379c0.037,6.096,0.017,12.192,0.017,18.288
				c0,0.584,0,1.167,0,1.806c2.075,0,3.843,0,5.602,0c0.056-0.273,0.115-0.43,0.115-0.586c0.008-6.966,0.102-13.935-0.028-20.9
				C407.917,548.872,407.249,545.919,405.105,543.362z"/>
			<path style="fill:#5C2D91;" d="M294.388,542.943c-4.201-3.994-12.24-4.824-17.523-1.768c-0.764,0.442-1.548,0.851-2.479,1.361
				c-0.07-0.977-0.118-1.665-0.171-2.396c-1.9,0-3.715,0-5.515,0c0,11.197,0,22.27,0,33.333c1.908,0,3.68,0,5.597,0
				c0-0.687,0-1.275,0-1.862c0-6.59-0.088-13.182,0.074-19.767c0.032-1.322,0.734-2.863,1.614-3.881
				c1.757-2.033,4.215-2.927,6.904-3.236c6.202-0.712,9.33,2.703,9.243,7.625c-0.114,6.478-0.03,12.961-0.025,19.442
				c0,0.573,0.047,1.146,0.072,1.722c1.931,0,3.664,0,5.522,0c0.049-0.388,0.099-0.599,0.099-0.81
				c0.005-7.243,0.075-14.487-0.027-21.729C297.732,547.913,296.7,545.141,294.388,542.943z"/>
			<path style="fill:#5C2D91;" d="M417.497,504.277c6.725,5.092,14.576,6.472,22.693,6.773c6.342,0.234,12.508-1.04,18.554-2.892
				c3.608-1.106,3.661-1.119,3.246-4.789c-0.289-2.55-0.756-5.08-1.159-7.722c-7.946,3.09-15.976,3.937-24.183,2.851
				c-6.588-0.872-11.555-4.178-13.878-10.579c-3.176-8.753-3.115-17.655-0.315-26.491c1.771-5.588,5.647-9.221,11.333-10.676
				c5.044-1.29,10.207-1.375,15.342-0.613c3.793,0.563,7.547,1.388,11.553,2.14c0.539-3.509,1.111-7.024,1.569-10.555
				c0.045-0.349-0.541-0.997-0.965-1.156c-5.167-1.939-10.56-2.848-16.041-3.158c-5.115-0.289-10.208,0.093-15.202,1.288
				c-10.488,2.509-18.157,8.425-21.94,18.738c-3.358,9.156-3.565,18.593-1.739,28.07
				C407.818,493.044,411.225,499.529,417.497,504.277z"/>
			<path style="fill:#5C2D91;" d="M259.958,530.057c-3.259-0.565-6.636-0.451-9.958-0.631c0,1.543,0,2.664,0,3.922
				c1.73,0,3.359-0.086,4.972,0.037c0.792,0.06,1.554,0.51,2.33,0.783c-0.312,0.738-0.474,1.602-0.966,2.192
				c-1.153,1.381-1.887,2.781-1.874,4.686c0.072,10.178,0.034,20.358,0.034,30.537c0,0.63,0,1.259,0,1.913c2.122,0,4.005,0,6.066,0
				c0-0.721,0-1.359,0-1.996c0-9.091,0.035-18.181-0.021-27.271c-0.017-2.699,0.167-5.158,1.871-7.532
				C264.194,534.216,262.838,530.557,259.958,530.057z"/>
			<path style="fill:#5C2D91;" d="M374.939,497.772c-6.335,2.394-12.844,1.746-19.22,0.159c-4.342-1.08-8.549-2.699-13.01-4.14
				c-0.553,3.703-1.148,7.678-1.735,11.609c0.317,0.201,0.49,0.334,0.682,0.429c0.485,0.241,0.969,0.491,1.471,0.694
				c8.358,3.382,16.988,5.003,26.043,4.332c4.595-0.341,9.045-1.153,13.26-3c9.743-4.268,13.779-11.498,12.486-21.678
				c-0.875-6.889-4.604-11.912-11.011-14.419c-5.22-2.043-10.766-3.239-16.101-5.009c-3.479-1.154-6.938-2.466-10.22-4.083
				c-2.208-1.088-2.797-3.503-2.249-5.936c0.644-2.862,2.635-4.454,5.154-5.435c6.47-2.519,13.129-1.88,19.751-0.843
				c3.465,0.543,6.874,1.435,10.441,2.199c0.458-2.982,0.831-5.986,1.403-8.952c0.506-2.62,0.506-2.506-1.934-3.022
				c-4.915-1.04-9.861-2.003-14.837-2.674c-6.527-0.879-12.999-0.27-19.309,1.668c-12.15,3.732-16.212,14.258-13.809,24.322
				c1.37,5.736,5.421,9.466,10.663,11.551c4.752,1.89,9.792,3.063,14.719,4.502c4.223,1.233,8.521,2.295,11.901,5.368
				c2.717,2.471,3.134,6.18,0.638,8.867C378.728,495.776,376.845,497.052,374.939,497.772z"/>
			<path style="fill:#5C2D91;" d="M529.535,529.571c-3.773,0.08-5.49,1.953-5.411,6.014c1.902,0,3.677,0,5.452,0
				c-0.085-0.132-0.169-0.262-0.253-0.394c0.732-0.584,1.384-1.433,2.217-1.683c0.98-0.294,2.115-0.069,3.264-0.069
				c0-1.401,0-2.558,0-3.874C532.981,529.565,531.258,529.534,529.535,529.571z"/>
			<path style="fill:#5C2D91;" d="M438.066,535.835c9.024,0,17.861,0,26.758,0c0-1.433,0-2.761,0-4.125c-8.976,0-17.852,0-26.758,0
				C438.066,533.133,438.066,534.423,438.066,535.835z"/>
			<path style="fill:#5C2D91;" d="M494.738,549.73c-1.063-0.889-2.295-1.577-3.615-2.47c1.976-1.775,3.856-3.464,5.87-5.275
				c-1.403-0.773-2.648-1.533-3.964-2.139c-0.365-0.168-1.073-0.044-1.395,0.221c-3.637,3.003-7.229,6.06-10.975,9.222
				c0.834,0.172,1.478,0.231,2.07,0.438c2.237,0.785,4.591,1.372,6.654,2.49c3.447,1.867,4.833,5.072,4.46,8.911
				c-0.355,3.649-2.628,6.072-5.999,6.936c-2.616,0.67-5.452,0.55-8.196,0.625c-1.702,0.048-2.316-0.841-2.288-2.685
				c0.123-8.003,0.053-16.01,0.053-24.016c0-0.625,0-1.249,0-1.909c-2.02,0-3.752,0-5.616,0c-0.053,0.388-0.108,0.597-0.108,0.807
				c-0.006,10.02-0.022,20.041,0.039,30.061c0.003,0.492,0.598,1.259,1.082,1.429c5.438,1.908,11.013,2.366,16.585,0.806
				c4.902-1.372,8.57-4.334,9.763-9.514C500.412,558.227,499.156,553.422,494.738,549.73z"/>
			<path style="fill:#5C2D91;" d="M533.273,540.128c-2.026,0-3.797,0-5.733,0c0,0.749,0,1.39,0,2.031
				c0,7.462-0.041,14.925,0.037,22.386c0.015,1.388-0.473,2.191-1.683,2.589c-1.742,0.574-3.48,1.284-5.277,1.542
				c-3.287,0.471-6.536,0.088-9.412-1.743c-2.819-1.795-3.301-5-1.217-7.588c1.278-1.587,2.987-2.509,4.998-2.767
				c1.701-0.218,3.419-0.304,5.13-0.449c0-1.684,0-3.279,0-4.965c-1.714,0-3.297,0.105-4.861-0.031
				c-1.388-0.121-2.793-0.389-4.116-0.818c-1.189-0.386-1.777-1.404-1.687-2.694c0.091-1.307,0.889-2.22,2.087-2.4
				c1.692-0.253,3.433-0.273,5.148-0.234c1.142,0.025,2.277,0.325,3.564,0.526c0-1.578,0.068-2.884-0.04-4.175
				c-0.034-0.406-0.47-1.006-0.843-1.12c-4.56-1.387-8.945-1.009-12.86,1.846c-3.229,2.355-4.223,7.476-0.445,10.569
				c0.584,0.479,1.179,0.946,1.942,1.556c-0.468,0.367-0.819,0.616-1.141,0.898c-2.053,1.8-3.66,3.839-3.856,6.726
				c-0.339,4.998,2.14,8.282,6.387,10.396c3.855,1.92,8.017,2.068,12.211,1.692c4.059-0.364,7.76-1.66,10.646-4.66
				c0.56-0.582,0.971-1.573,0.978-2.379c0.07-8.333,0.043-16.667,0.043-25.001C533.273,541.286,533.273,540.711,533.273,540.128z"/>
			<path style="fill:#5C2D91;" d="M525.782,473.341c-0.698-0.225-1.384-0.491-2.075-0.737c0.025-0.163,0.049-0.326,0.073-0.49
				c0.423-0.186,0.834-0.4,1.269-0.552c3.907-1.362,6.555-4.017,7.921-7.89c1.093-3.097,1.456-6.265,1.05-9.586
				c-0.62-5.072-3.031-8.869-7.378-11.464c-5.27-3.147-11.177-3.776-17.098-3.875c-10.35-0.173-20.705-0.048-31.058-0.048
				c-0.581,0-1.162,0-1.767,0c0,23.817,0,47.425,0,71.076c0.564,0.025,0.997,0.061,1.429,0.06
				c11.279-0.009,22.561,0.115,33.836-0.113c3.862-0.078,7.827-0.619,11.536-1.679c12.235-3.497,15.604-12.791,13.535-23.142
				C535.841,478.825,531.584,475.207,525.782,473.341z M490.518,450.292c0.664,0,1.244-0.001,1.824,0
				c5.828,0.009,11.658-0.063,17.483,0.074c1.974,0.047,3.998,0.42,5.889,1.005c3.149,0.974,4.989,3.731,5.01,7.055
				c0.008,1.301,0.091,2.648-0.193,3.898c-0.811,3.57-3.668,5.927-7.927,6.039c-7.289,0.191-14.587,0.053-22.086,0.053
				C490.518,462.324,490.518,456.416,490.518,450.292z M523.189,491.074c-0.883,4.351-3.632,6.914-8.339,7.043
				c-7.947,0.217-15.904,0.061-23.858,0.056c-0.098,0-0.197-0.072-0.485-0.183c0-6.457,0-12.867,0-19.45
				c0.588-0.033,1.111-0.089,1.636-0.09c5.067-0.007,10.135-0.077,15.2,0.023c3.029,0.061,6.095,0.146,9.068,0.664
				c4.496,0.784,6.906,3.953,6.933,8.52C523.35,488.797,523.413,489.969,523.189,491.074z"/>
		</g>
		<path style="fill-rule:evenodd;clip-rule:evenodd;fill:#5C2D91;" d="M390.68,452.653c-3.567-0.763-6.976-1.656-10.441-2.199
			c-6.622-1.038-13.281-1.676-19.751,0.843c-2.519,0.98-4.51,2.573-5.154,5.435c-0.548,2.432,0.041,4.848,2.249,5.936
			c3.283,1.617,6.741,2.929,10.22,4.083c5.335,1.77,10.881,2.967,16.101,5.009c6.407,2.506,10.136,7.53,11.011,14.419
			c1.293,10.181-2.743,17.41-12.486,21.678c-4.215,1.847-8.666,2.659-13.26,3c-9.054,0.672-17.685-0.949-26.043-4.332
			c-0.502-0.203-0.986-0.452-1.471-0.694c-0.192-0.095-0.365-0.227-0.682-0.429c0.588-3.931,1.182-7.907,1.735-11.609
			c4.461,1.441,8.668,3.059,13.01,4.14c6.376,1.586,12.885,2.235,19.22-0.159c1.906-0.72,3.789-1.996,5.176-3.488
			c2.497-2.687,2.079-6.396-0.638-8.867c-3.38-3.073-7.678-4.134-11.901-5.368c-4.927-1.439-9.967-2.612-14.719-4.502
			c-5.242-2.085-9.293-5.815-10.663-11.551c-2.403-10.065,1.66-20.59,13.809-24.322c6.309-1.938,12.782-2.547,19.309-1.668
			c4.977,0.671,9.922,1.634,14.837,2.674c2.44,0.516,2.439,0.402,1.934,3.022C391.511,446.667,391.139,449.671,390.68,452.653z"/>
		<path style="fill-rule:evenodd;clip-rule:evenodd;fill:#5C2D91;" d="M460.682,452.278c-4.006-0.752-7.76-1.577-11.553-2.14
			c-5.135-0.762-10.298-0.676-15.342,0.613c-5.686,1.454-9.562,5.088-11.333,10.676c-2.8,8.836-2.861,17.738,0.315,26.491
			c2.323,6.401,7.29,9.708,13.878,10.579c8.207,1.087,16.237,0.24,24.183-2.851c0.403,2.642,0.871,5.172,1.159,7.722
			c0.415,3.67,0.362,3.684-3.246,4.789c-6.046,1.852-12.212,3.126-18.554,2.892c-8.116-0.301-15.968-1.681-22.693-6.773
			c-6.271-4.748-9.679-11.233-11.132-18.772c-1.827-9.477-1.619-18.915,1.739-28.07c3.782-10.313,11.452-16.228,21.94-18.738
			c4.994-1.195,10.086-1.577,15.202-1.288c5.481,0.31,10.874,1.219,16.041,3.158c0.424,0.159,1.01,0.807,0.965,1.156
			C461.793,445.253,461.221,448.769,460.682,452.278z"/>
		<path style="fill-rule:evenodd;clip-rule:evenodd;fill:#5C2D91;" d="M459.292,540.078c1.905,0,3.637,0,5.5,0
			c0,11.125,0,22.202,0,33.387c-1.783,0-3.552,0-5.453,0c-0.075-0.749-0.152-1.526-0.249-2.501c-1.007,0.587-1.864,1.125-2.754,1.6
			c-5.756,3.072-12.893,1.787-16.691-3.016c-1.651-2.089-2.237-4.563-2.287-7.154c-0.066-3.431-0.154-6.871,0.019-10.294
			c0.21-4.163-2.213-6.274-5.399-7.058c-4.084-1.006-7.981-0.618-11.318,2.246c-0.406,0.349-0.822,0.966-0.827,1.463
			c-0.058,6.047-0.041,12.094-0.038,18.141c0,0.431,0.042,0.862,0.077,1.521c1.58,0,3.124,0,4.756,0c0,1.786,0,3.342,0,5.031
			c-3.447,0-6.895,0-10.476,0c-0.031-0.528-0.09-1.055-0.09-1.581c0.004-8.008-0.022-16.017,0.076-24.024
			c0.011-0.912,0.56-1.95,1.15-2.702c6.08-7.76,19.901-7.315,25.14-1.409c1.659,1.87,2.602,3.982,2.614,6.481
			c0.017,3.595,0.004,7.191,0.004,10.787c0.001,6.368,4.561,9.526,10.598,7.274c3.95-1.474,5.738-3.823,5.621-7.942
			c-0.179-6.26-0.048-12.528-0.044-18.793C459.221,541.106,459.262,540.679,459.292,540.078z"/>
		<path style="fill-rule:evenodd;clip-rule:evenodd;fill:#5C2D91;" d="M338.874,540.081c1.927,0,3.661,0,5.595,0
			c1.92,7.033,3.853,14.109,5.929,21.712c0.451-0.932,0.736-1.399,0.912-1.903c2.171-6.192,4.359-12.38,6.455-18.599
			c0.347-1.03,0.83-1.299,1.843-1.296c3.544,0.013,3.531-0.018,4.728,3.39c1.994,5.678,4.006,11.35,6.016,17.022
			c0.103,0.29,0.252,0.564,0.799,0.903c1.922-7.039,3.844-14.079,5.787-21.198c1.856,0,3.683,0,5.728,0
			c-0.734,2.79-1.416,5.453-2.134,8.106c-2.167,7.998-4.363,15.988-6.504,23.992c-0.264,0.989-0.646,1.407-1.745,1.394
			c-3.14-0.039-3.14,0.017-4.198-3.009c-2.201-6.297-4.402-12.595-6.609-18.89c-0.186-0.531-0.423-1.044-1.055-1.561
			c-0.782,2.162-1.584,4.317-2.341,6.487c-1.802,5.171-3.623,10.335-5.342,15.534c-0.382,1.155-0.953,1.461-2.095,1.435
			c-2.806-0.065-2.84-0.004-3.596-2.768c-2.7-9.873-5.378-19.751-8.055-29.631C338.912,540.897,338.923,540.568,338.874,540.081z"/>
		<path style="fill-rule:evenodd;clip-rule:evenodd;fill:#5C2D91;" d="M308.246,554.182c-0.387-0.311-0.621-0.523-0.879-0.7
			c-4.687-3.227-4.671-8.935,0.135-11.941c3.866-2.418,8.06-2.661,12.349-1.261c0.364,0.119,0.779,0.705,0.81,1.104
			c0.103,1.296,0.038,2.605,0.038,4.177c-1.338-0.215-2.576-0.542-3.824-0.585c-1.662-0.057-3.351-0.025-4.992,0.216
			c-1.301,0.191-2.119,1.236-2.167,2.533c-0.047,1.29,0.672,2.399,1.951,2.711c1.614,0.393,3.292,0.567,4.953,0.707
			c1.286,0.109,2.588,0.022,3.98,0.022c0,1.714,0,3.269,0,4.948c-1.749,0.146-3.513,0.252-5.267,0.45
			c-2.093,0.237-3.808,1.229-5.138,2.854c-1.951,2.384-1.549,5.461,0.94,7.289c3.977,2.918,11.485,2.775,15.927-0.133
			c0.437-0.286,0.656-1.188,0.66-1.806c0.044-7.572,0.029-15.144,0.029-22.716c0-0.592,0-1.184,0-1.904c1.922,0,3.733,0,5.653,0
			c0.027,0.575,0.074,1.104,0.074,1.634c0.005,8.389,0.035,16.779-0.044,25.167c-0.008,0.85-0.466,1.918-1.079,2.503
			c-2.984,2.849-6.66,4.151-10.743,4.474c-3.539,0.281-7.034,0.147-10.399-1.055c-3.591-1.283-6.4-3.482-7.605-7.269
			c-1.183-3.714,0.115-7.773,3.191-10.246C307.251,554.991,307.701,554.625,308.246,554.182z"/>
		<path style="fill-rule:evenodd;clip-rule:evenodd;fill:#5C2D91;" d="M508.004,554.189c-0.763-0.611-1.358-1.078-1.942-1.556
			c-3.777-3.093-2.784-8.214,0.445-10.569c3.915-2.855,8.299-3.233,12.86-1.846c0.373,0.114,0.81,0.714,0.843,1.12
			c0.108,1.291,0.04,2.597,0.04,4.175c-1.287-0.201-2.422-0.501-3.564-0.526c-1.716-0.039-3.457-0.02-5.148,0.234
			c-1.198,0.18-1.996,1.093-2.087,2.4c-0.09,1.29,0.498,2.309,1.687,2.694c1.324,0.429,2.729,0.696,4.116,0.818
			c1.564,0.137,3.147,0.031,4.861,0.031c0,1.686,0,3.281,0,4.965c-1.711,0.145-3.429,0.231-5.13,0.449
			c-2.011,0.258-3.72,1.18-4.998,2.767c-2.084,2.588-1.602,5.793,1.217,7.588c2.876,1.831,6.124,2.214,9.412,1.743
			c1.796-0.258,3.535-0.968,5.277-1.542c1.211-0.398,1.698-1.202,1.683-2.589c-0.078-7.461-0.037-14.925-0.037-22.386
			c0-0.641,0-1.282,0-2.031c1.936,0,3.707,0,5.733,0c0,0.583,0,1.158,0,1.733c0,8.334,0.027,16.668-0.043,25.001
			c-0.007,0.806-0.418,1.797-0.978,2.379c-2.886,3.001-6.587,4.296-10.646,4.66c-4.194,0.376-8.356,0.228-12.211-1.692
			c-4.247-2.115-6.726-5.399-6.387-10.396c0.196-2.887,1.803-4.927,3.856-6.726C507.185,554.805,507.536,554.556,508.004,554.189z"
			/>
		<path style="fill-rule:evenodd;clip-rule:evenodd;fill:#5C2D91;" d="M471.797,540.08c1.864,0,3.596,0,5.616,0
			c0,0.66,0,1.284,0,1.909c0,8.006,0.07,16.012-0.053,24.016c-0.028,1.843,0.586,2.732,2.288,2.685
			c2.743-0.076,5.58,0.045,8.196-0.625c3.371-0.864,5.644-3.287,5.999-6.936c0.374-3.839-1.013-7.044-4.46-8.911
			c-2.063-1.118-4.417-1.704-6.654-2.49c-0.592-0.208-1.236-0.267-2.07-0.438c3.746-3.163,7.338-6.219,10.975-9.222
			c0.322-0.266,1.031-0.389,1.395-0.221c1.316,0.606,2.561,1.366,3.964,2.139c-2.014,1.811-3.894,3.5-5.87,5.275
			c1.32,0.893,2.552,1.581,3.615,2.47c4.418,3.693,5.673,8.497,4.42,13.939c-1.193,5.181-4.861,8.143-9.763,9.514
			c-5.572,1.559-11.147,1.102-16.585-0.806c-0.484-0.17-1.079-0.937-1.082-1.429c-0.062-10.02-0.045-20.041-0.039-30.061
			C471.689,540.677,471.744,540.467,471.797,540.08z"/>
		<path style="fill-rule:evenodd;clip-rule:evenodd;fill:#5C2D91;" d="M297.703,573.514c-1.859,0-3.591,0-5.522,0
			c-0.025-0.576-0.072-1.149-0.072-1.722c-0.005-6.481-0.09-12.964,0.025-19.442c0.087-4.923-3.042-8.337-9.243-7.625
			c-2.689,0.309-5.147,1.203-6.904,3.236c-0.88,1.019-1.581,2.559-1.614,3.881c-0.162,6.586-0.074,13.178-0.074,19.767
			c0,0.588,0,1.176,0,1.862c-1.917,0-3.689,0-5.597,0c0-11.063,0-22.136,0-33.333c1.8,0,3.615,0,5.515,0
			c0.052,0.731,0.101,1.419,0.171,2.396c0.931-0.51,1.715-0.919,2.479-1.361c5.283-3.056,13.322-2.226,17.523,1.768
			c2.312,2.198,3.344,4.97,3.387,8.032c0.101,7.242,0.032,14.487,0.027,21.729C297.802,572.916,297.752,573.127,297.703,573.514z"/>
		<path style="fill-rule:evenodd;clip-rule:evenodd;fill:#5C2D91;" d="M260.562,573.497c-2.062,0-3.944,0-6.066,0
			c0-0.654,0-1.284,0-1.913c0-10.179,0.038-20.359-0.034-30.537c-0.013-1.905,0.721-3.304,1.874-4.686
			c0.492-0.59,0.654-1.453,0.966-2.192c-0.776-0.273-1.538-0.723-2.33-0.783c-1.613-0.123-3.242-0.037-4.972-0.037
			c0-1.258,0-2.378,0-3.922c3.322,0.18,6.699,0.065,9.958,0.631c2.88,0.5,4.236,4.158,2.454,6.64
			c-1.704,2.374-1.888,4.833-1.871,7.532c0.057,9.09,0.021,18.181,0.021,27.271C260.562,572.138,260.562,572.775,260.562,573.497z"
			/>
		<path style="fill-rule:evenodd;clip-rule:evenodd;fill:#5C2D91;" d="M402.286,573.452c0-0.639,0-1.222,0-1.806
			c0-6.096,0.019-12.192-0.017-18.288c-0.007-1.129-0.113-2.288-0.39-3.379c-1.044-4.108-4.335-5.756-8.465-5.334
			c-1.172,0.12-2.345,0.414-3.467,0.784c-1.065,0.351-2.063,0.905-3.346,1.486c0-1.821-0.039-3.522,0.035-5.218
			c0.014-0.322,0.41-0.756,0.738-0.916c4.308-2.115,13.551-2.406,17.732,2.581c2.144,2.557,2.812,5.51,2.87,8.605
			c0.13,6.964,0.036,13.933,0.028,20.9c0,0.156-0.059,0.313-0.115,0.586C406.129,573.452,404.361,573.452,402.286,573.452z"/>
		<path style="fill-rule:evenodd;clip-rule:evenodd;fill:#5C2D91;" d="M438.066,535.835c0-1.413,0-2.703,0-4.125
			c8.907,0,17.783,0,26.758,0c0,1.364,0,2.692,0,4.125C455.927,535.835,447.09,535.835,438.066,535.835z"/>
		<path style="fill-rule:evenodd;clip-rule:evenodd;fill:#5C2D91;" d="M524.124,535.586c-0.079-4.061,1.638-5.934,5.411-6.014
			c1.723-0.037,3.446-0.006,5.269-0.006c0,1.316,0,2.474,0,3.874c-1.149,0-2.284-0.225-3.264,0.069
			c-0.833,0.25-1.485,1.099-2.217,1.683c0.084,0.132,0.169,0.262,0.253,0.394C527.801,535.586,526.026,535.586,524.124,535.586z"/>
		<g>
			<path style="fill:#FAA634;" d="M586.508,557.15c11.634,5.411,23.225,10.917,34.844,16.361c0.611,0.286,1.359,0.389,2.044,0.391
				c8.828,0.025,17.657-0.017,26.486,0.049c1.477,0.011,1.831-0.475,1.82-1.876c-0.06-7.738-0.027-15.477-0.034-23.216
				c0-0.412-0.071-0.823-0.13-1.46c-0.692,0.318-1.212,0.572-1.744,0.799c-8.135,3.483-16.387,6.421-25.477,5.259
				c-3.534-0.452-6.727-1.704-9.336-4.211c-4.555-4.377-5.955-10.074-6.061-16.028c-0.089-4.967,0.367-9.973,0.961-14.916
				c0.702-5.83,2.183-11.506,4.667-16.873c6.769-14.626,16.481-27.127,28.092-38.148c3.837-3.642,8.374-6.547,12.586-9.796
				c1.041-0.803,2.042-0.817,3.112-0.023c3.36,2.49,6.924,4.739,10.076,7.467c8.188,7.088,15.154,15.313,21.302,24.206
				c6.155,8.904,11.365,18.276,13.346,29.113c1.448,7.918,2.63,15.857,1.104,23.9c-2.052,10.815-8.401,15.355-18.193,15.623
				c-4.808,0.132-9.493-0.918-14.031-2.467c-3.271-1.117-6.473-2.434-9.891-3.732c-0.023,0.468-0.051,0.789-0.051,1.11
				c-0.003,7.739,0.054,15.478-0.046,23.216c-0.022,1.737,0.562,2.068,2.148,2.056c8.556-0.071,17.112-0.006,25.669-0.067
				c1.097-0.008,2.277-0.283,3.273-0.748c11.233-5.24,22.437-10.543,33.651-15.825c2.277-1.073,2.27-1.062,1.652-3.48
				c-6.253-24.47-12.497-48.942-18.782-73.405c-0.216-0.841-0.679-1.742-1.295-2.337c-2.543-2.457-5.185-4.812-7.801-7.194
				c-4.95-4.507-9.901-9.012-14.863-13.506c-6.616-5.99-13.245-11.966-19.863-17.952c-2.624-2.373-5.249-4.745-7.842-7.152
				c-0.863-0.801-1.496-0.76-2.318,0.11c-1.082,1.143-2.321,2.137-3.487,3.2c-5.187,4.731-10.364,9.473-15.562,14.193
				c-5.52,5.012-11.053,10.008-16.59,15.001c-4.041,3.644-8.14,7.225-12.127,10.927c-1.594,1.48-3.396,2.741-4.007,5.165
				c-6.164,24.436-12.408,48.853-18.688,73.26C584.718,555.715,585.011,556.453,586.508,557.15z"/>
			<path style="fill:#5C2D91;" d="M563.633,410.3c0,61.588,0,122.985,0,184.454c62.177,0,124.263,0,186.367,0
				c0-61.547,0-122.981,0-184.454C687.831,410.3,625.784,410.3,563.633,410.3z M726.695,557.313
				c-11.214,5.282-22.418,10.585-33.651,15.825c-0.996,0.464-2.176,0.74-3.273,0.748c-8.556,0.06-17.112-0.004-25.669,0.067
				c-1.586,0.013-2.17-0.318-2.148-2.056c0.1-7.738,0.043-15.477,0.046-23.216c0-0.321,0.029-0.642,0.051-1.11
				c3.417,1.298,6.62,2.615,9.891,3.732c4.538,1.549,9.223,2.598,14.031,2.467c9.792-0.268,16.14-4.808,18.193-15.623
				c1.526-8.043,0.343-15.981-1.104-23.9c-1.981-10.837-7.191-20.209-13.346-29.113c-6.148-8.893-13.114-17.117-21.302-24.206
				c-3.151-2.728-6.716-4.977-10.076-7.467c-1.071-0.793-2.071-0.779-3.112,0.023c-4.212,3.249-8.749,6.153-12.586,9.796
				c-11.61,11.022-21.322,23.523-28.092,38.148c-2.485,5.367-3.966,11.043-4.667,16.873c-0.595,4.943-1.05,9.949-0.961,14.916
				c0.107,5.954,1.507,11.651,6.061,16.028c2.608,2.507,5.802,3.759,9.336,4.211c9.091,1.162,17.342-1.776,25.477-5.259
				c0.532-0.227,1.052-0.482,1.744-0.799c0.059,0.637,0.13,1.048,0.13,1.46c0.007,7.739-0.026,15.478,0.034,23.216
				c0.011,1.401-0.342,1.887-1.82,1.876c-8.829-0.065-17.658-0.023-26.486-0.049c-0.685-0.002-1.433-0.105-2.044-0.391
				c-11.619-5.444-23.21-10.949-34.844-16.361c-1.498-0.697-1.791-1.435-1.386-3.008c6.28-24.407,12.524-48.823,18.688-73.26
				c0.611-2.424,2.413-3.684,4.007-5.165c3.987-3.702,8.086-7.283,12.127-10.927c5.537-4.993,11.07-9.989,16.59-15.001
				c5.198-4.72,10.375-9.462,15.562-14.193c1.167-1.063,2.405-2.057,3.487-3.2c0.822-0.869,1.455-0.91,2.318-0.11
				c2.593,2.406,5.218,4.778,7.842,7.152c6.618,5.987,13.248,11.962,19.863,17.952c4.962,4.493,9.913,8.999,14.863,13.506
				c2.616,2.382,5.258,4.737,7.801,7.194c0.616,0.595,1.079,1.496,1.295,2.337c6.284,24.463,12.528,48.935,18.782,73.405
				C728.966,556.25,728.973,556.24,726.695,557.313z"/>
		</g>
	</g>
</g>
</svg>
